<svg id="Capa_1" data-name="Capa 1" xmlns="http://www.w3.org/2000/svg" xmlns:xlink="http://www.w3.org/1999/xlink" viewBox="0 0 203.98 221.24"><defs><style>.cls-1,.cls-3{fill:none;}.cls-2{clip-path:url(#clip-path);}.cls-3{stroke:#7194c0;stroke-miterlimit:10;}.cls-4{fill:#fff;}.cls-5,.cls-8{fill:#104da1;}.cls-5,.cls-6,.cls-7{fill-rule:evenodd;}.cls-6{fill:#ee2843;}.cls-7{fill:#fec33e;}</style><clipPath id="clip-path"><rect class="cls-1" x="-632" width="612" height="792"/></clipPath></defs><g class="cls-2"><ellipse class="cls-3" cx="-158.94" cy="-415.3" rx="580.24" ry="1092.97" transform="translate(266.3 -545.32) rotate(-86.06)"/><path class="cls-3" d="M331.73-316.69c291,134.21,379.57,562.45,197.82,956.49s-565,604.67-856,470.46S-706,547.81-524.23,153.77,40.74-450.91,331.73-316.69Z"/></g><path class="cls-4" d="M196.67,0H7.32A7.34,7.34,0,0,0,0,7.32V111.76a101.12,101.12,0,0,0,5.2,32.88C19.2,184.94,60.06,204,109.93,204h86.74a7.41,7.41,0,0,0,2.37-.4v3.16a6.88,6.88,0,0,1-6.87,6.87H11.81a6.88,6.88,0,0,1-6.87-6.87V166.87c0-5.69-2.09-13.24-2.09-9.85v49.72a9,9,0,0,0,9,9H192.17a9,9,0,0,0,9-9v-4.3a7.27,7.27,0,0,0,2.85-5.78V7.32A7.33,7.33,0,0,0,196.67,0"/><path class="cls-5" d="M125.26,44.54a7,7,0,0,1,9.89-9.81l0,.06L150,49.59l.09.13a7,7,0,0,1-.1,9.72.63.63,0,0,1-.15.19L135.18,74.28l-.1.11a7,7,0,0,1-9.89-9.91l.14-.1,9.86-9.84-9.85-9.91Z"/><path class="cls-6" d="M149.07,44.54a6.86,6.86,0,0,1,.09-9.74,7,7,0,0,1,9.8,0l0,0,14.8,14.8.09.11a7,7,0,0,1-.09,9.74.72.72,0,0,1-.16.2L159,74.29l-.09.11a7,7,0,0,1-9.9-9.91l.15-.09L159,54.55l-9.85-9.9Z"/><path class="cls-7" d="M101.48,44.57a7,7,0,0,1,9.86-9.84l0,0,14.8,14.82.15.08a7,7,0,0,1-.15,9.76.73.73,0,0,1-.15.2L111.37,74.27l-.09.11a7,7,0,0,1-9.85-9.91l.09-.09,9.86-9.85-9.85-9.91Z"/><path class="cls-8" d="M128.41,96a11.37,11.37,0,0,0,.38-3.21,9.87,9.87,0,0,0-4-8.49,11.71,11.71,0,0,0-4.55-2,53.77,53.77,0,0,0-8.8-.51l-25.94,0h-1.8c-.52,0-1,0-1.48,0a17.84,17.84,0,0,0-2.87.18c-1.55.31-2.45,1-2.53,3.45V96.5h36L80,162.74h16.7l29.13-61c1.67-3.45,2.33-5,2.59-5.76"/><path class="cls-8" d="M167.59,125a37.91,37.91,0,0,0,7-9.7,23.23,23.23,0,0,0,2-9.93,24.62,24.62,0,0,0-6.77-17.46,25.25,25.25,0,0,0-19.2-8.41,26,26,0,0,0-20.41,10.1,14.47,14.47,0,0,1,.35,3.23,12.39,12.39,0,0,1-.48,3.75c-.4,1.15-1.32,3.2-2.67,6l-1.4,3h15.73a10.43,10.43,0,0,1,1.25-4.85,8.46,8.46,0,0,1,7.72-4.31,8.86,8.86,0,0,1,6,2.23,8.23,8.23,0,0,1,3.05,6.36,9.81,9.81,0,0,1-1.3,4.84,39.43,39.43,0,0,1-5.2,6.4l-22.56,24.32a46.56,46.56,0,0,0-5.52,6.65,9.77,9.77,0,0,0-1.07,4.9,11.44,11.44,0,0,0,4.21,9.07,8.47,8.47,0,0,0,3.92,2,36.35,36.35,0,0,0,7.23.49h35.89V147.48l-28.85,0Z"/><path class="cls-8" d="M79.49,115.28v-17H75V89.75a1.37,1.37,0,0,1,0-.29V85.37c.1-3,1.36-4.66,4-5.17l.52-.08,0-47.51H63.18L55.71,43.13,33.82,73.9a83.48,83.48,0,0,0-5.48,8.39,12.18,12.18,0,0,0-1,5.18c0,3.7,1.3,6.4,4,8.2a8.06,8.06,0,0,0,3.25,1.41,38.77,38.77,0,0,0,5.87.29H62.53l0,17.9ZM55.68,80.89H48.9l6.8-10.22,6.84-10.18v20.4Z"/></svg>