<?xml version="1.0" encoding="utf-8"?>
<!-- Generator: Adobe Illustrator 24.2.3, SVG Export Plug-In . SVG Version: 6.00 Build 0)  -->
<svg version="1.1" id="Capa_1" xmlns="http://www.w3.org/2000/svg" xmlns:xlink="http://www.w3.org/1999/xlink" x="0px" y="0px"
	 viewBox="0 0 512 512" style="enable-background:new 0 0 512 512; fill: rgb(0, 97, 173)" xml:space="preserve">
<g>
	<path d="M290.1,51.2c19.9,0,38.8,8.8,51.8,23.9c1.6,1.9,4,3,6.5,3c2,0,4-0.8,5.5-2.1c1.7-1.5,2.8-3.6,3-5.8c0.2-2.3-0.6-4.5-2-6.2
		C338.7,45,315,34.1,290.1,34.1c-4.7,0-8.5,3.8-8.5,8.5S285.4,51.2,290.1,51.2z"/>
	<path d="M382.5,324.3h27.1c56.6,0,102.4-45.8,102.4-102.4c0-56.6-45.8-102.4-102.4-102.4c-0.1-57.7-41.4-107-98.2-117.3
		C254.7-8.1,198.7,23.6,178.3,77.6c-27.2,3-51.3,18.8-64.7,42.7c-3.7-0.5-7.5-0.7-11.3-0.8C45.8,119.5,0,165.3,0,221.9
		s45.8,102.4,102.4,102.4h27.1c19.6,48.8,65.5,82,117.9,85.3v17.1h-128c-14.1,0-25.6,11.5-25.6,25.6v34.1
		c0,14.1,11.5,25.6,25.6,25.6h273.1c14.1,0,25.6-11.5,25.6-25.6v-34.1c0-14.1-11.5-25.6-25.6-25.6h-128v-17.1
		C317,406.2,362.9,373,382.5,324.3z M124,307.2h-21.6c-47.1,0-85.3-38.2-85.3-85.3c0-47.1,38.2-85.3,85.3-85.3
		c16.8-0.1,33.3,4.9,47.3,14.3c2.6,1.7,5.8,1.9,8.6,0.6c2.8-1.4,4.6-4.1,4.8-7.2s-1.3-6-3.8-7.7c-8.6-5.7-17.9-10.1-27.8-13.1
		c12.2-17.8,32.2-28.8,53.8-29.6h1.9c15-0.2,29.6,4.6,41.6,13.7c3.8,2.8,9.1,2.1,11.9-1.7s2.1-9.1-1.7-11.9
		c-12.3-9.2-26.8-15-42.1-16.6c19.9-43.9,67.7-68,114.8-57.8s80.8,51.8,80.8,100v1.5c-14.2,2.3-27.8,7.6-39.8,15.6
		c-3.9,2.6-4.9,7.9-2.3,11.9c2.6,3.9,7.9,4.9,11.9,2.3c14-9.3,30.5-14.3,47.3-14.2c47.1,0,85.3,38.2,85.3,85.3s-38.2,85.3-85.3,85.3
		H388c3-11.1,4.5-22.6,4.5-34.1c0-75.4-61.1-136.5-136.5-136.5s-136.5,61.1-136.5,136.5C119.5,284.6,121,296.1,124,307.2z
		 M154.9,336.3c-12-18.9-18.4-40.8-18.3-63.2c0-66,53.5-119.5,119.5-119.5s119.5,53.5,119.5,119.5c0,22.4-6.4,44.3-18.3,63.2
		c-16.8-16.9-38.1-28.5-61.4-33.4c24.1-17.2,34.4-48.1,25.3-76.4c-9.1-28.3-35.3-47.4-65-47.4s-56,19.2-65,47.4
		c-9.1,28.3,1.2,59.1,25.3,76.4C193,307.8,171.6,319.4,154.9,336.3z M256,298.7c-28.3,0-51.2-22.9-51.2-51.2s22.9-51.2,51.2-51.2
		s51.2,22.9,51.2,51.2S284.3,298.7,256,298.7z M392.5,443.7c4.7,0,8.5,3.8,8.5,8.5v34.1c0,4.7-3.8,8.5-8.5,8.5H119.5
		c-4.7,0-8.5-3.8-8.5-8.5v-34.1c0-4.7,3.8-8.5,8.5-8.5H392.5z M256,392.5c-35,0-68.3-15.4-90.9-42.2c15.4-17.1,42.7-34.6,90.9-34.6
		s75.5,17.7,90.9,34.6C324.3,377.1,291,392.5,256,392.5z"/>
	<path d="M145.1,477.9h8.5c4.7,0,8.5-3.8,8.5-8.5s-3.8-8.5-8.5-8.5h-8.5c-4.7,0-8.5,3.8-8.5,8.5S140.4,477.9,145.1,477.9z"/>
	<path d="M187.7,477.9h8.5c4.7,0,8.5-3.8,8.5-8.5s-3.8-8.5-8.5-8.5h-8.5c-4.7,0-8.5,3.8-8.5,8.5S183,477.9,187.7,477.9z"/>
	<path d="M230.4,477.9h8.5c4.7,0,8.5-3.8,8.5-8.5s-3.8-8.5-8.5-8.5h-8.5c-4.7,0-8.5,3.8-8.5,8.5S225.7,477.9,230.4,477.9z"/>
	<path d="M273.1,477.9h8.5c4.7,0,8.5-3.8,8.5-8.5s-3.8-8.5-8.5-8.5h-8.5c-4.7,0-8.5,3.8-8.5,8.5S268.4,477.9,273.1,477.9z"/>
	<path d="M315.7,477.9h8.5c4.7,0,8.5-3.8,8.5-8.5s-3.8-8.5-8.5-8.5h-8.5c-4.7,0-8.5,3.8-8.5,8.5S311,477.9,315.7,477.9z"/>
	<path d="M358.4,477.9h8.5c4.7,0,8.5-3.8,8.5-8.5s-3.8-8.5-8.5-8.5h-8.5c-4.7,0-8.5,3.8-8.5,8.5S353.7,477.9,358.4,477.9z"/>
</g>
</svg>
